<svg width="1152" height="57" viewBox="0 0 1152 57" fill="none" xmlns="http://www.w3.org/2000/svg">
<path d="M40.2549 8.88338C37.9092 10.3874 36.9692 13.4146 38.3984 15.9142C40.0007 18.7449 43.7757 19.5653 46.6513 18.3946C53.8274 15.4848 52.7528 5.8775 47.0422 2.12815C40.1973 -2.36253 30.3592 0.58568 29.0496 9.0607C27.74 17.5336 32.7456 25.2481 40.0199 28.7047C50.2297 33.5864 62.0802 33.8385 72.7002 30.1682C73.6786 29.837 73.8752 28.568 72.995 27.9805C69.7669 25.8911 65.3873 23.7248 61.5141 23.3531C56.1368 22.8468 50.6805 23.9385 45.5938 25.5984C37.2832 28.333 30.2033 33.4496 29.0304 42.7044C28.5412 46.5713 29.1671 51.0214 32.2179 53.7559C34.9952 56.2555 39.1996 56.8601 42.7588 56.0995C50.0545 54.5379 55.4318 45.125 48.8411 39.423C46.1813 37.1007 41.917 36.7867 39.3171 39.423C36.873 41.8648 37.4392 45.7894 40.2742 47.6053C41.5667 48.4449 42.778 46.3747 41.4876 45.5351C38.7103 43.7577 40.7442 40.2839 43.4424 40.0105C45.5168 39.7947 47.414 40.9077 48.5078 42.666C50.8941 46.5115 48.3326 51.2179 44.5982 53.0146C40.8617 54.8113 35.3669 54.4396 32.8438 50.8462C30.6135 47.663 30.9852 43.0954 32.2179 39.6003C34.8969 31.9841 42.1328 28.9184 49.388 26.9849C53.2228 25.9702 57.5447 25.1498 61.5141 25.7544C65.0348 26.2821 68.829 28.1365 71.7815 30.0699L72.0742 27.8844C64.5648 30.4801 56.5278 31.1253 48.762 29.2495C41.4876 27.4934 34.5636 24.0175 32.1004 16.4804C30.9852 13.0429 30.731 8.74879 32.8631 5.6425C35.3477 2.01065 40.9001 1.69873 44.6174 3.4762C48.3326 5.25154 50.8172 9.68453 48.7428 13.4723C47.7066 15.3481 45.6728 16.7923 43.4638 16.4804C40.8617 16.1086 38.5928 12.8101 41.5069 10.9535C42.7972 10.1332 41.6051 8.06515 40.2955 8.88338H40.2549Z" fill="#988361"/>
<path d="M14.4004 13.6884C17.7268 12.0862 21.8713 16.3824 23.4565 18.8243C25.1571 21.4798 25.8429 24.4857 25.6271 27.6112L27.1333 26.4576C24.3752 25.4044 21.6577 24.2123 19.0941 22.7104C17.7845 21.9477 16.4941 21.1273 15.4772 19.995C14.2829 18.6684 12.3281 15.2501 14.4004 13.6692C15.6139 12.7506 14.4004 10.6804 13.1891 11.5991C10.1383 13.9235 11.0378 18.2582 13.1485 20.9329C16.2975 24.9151 21.8906 26.9853 26.4881 28.7435C27.27 29.0362 27.9536 28.2949 27.9942 27.592C28.3061 23.08 26.8 18.6684 23.7492 15.31C21.2069 12.4963 16.9833 9.76392 13.1699 11.5991C11.7812 12.2635 12.9925 14.3336 14.3812 13.6692L14.4004 13.6884Z" fill="#988361"/>
<path d="M13.1891 44.1295C16.9833 45.9646 21.207 43.2322 23.7685 40.4186C26.8192 37.0602 28.3254 32.6486 28.0135 28.1365C27.9537 27.4336 27.27 26.6923 26.5073 26.985C21.912 28.7432 16.3168 30.8134 13.1699 34.7956C11.057 37.4704 10.1576 41.8051 13.2084 44.1295C14.4197 45.0673 15.6139 42.9972 14.4197 42.0593C12.3474 40.4784 14.3043 37.0602 15.4964 35.7335C16.5133 34.6012 17.8229 33.7808 19.1133 33.0181C21.677 31.5355 24.3944 30.3242 27.1525 29.2709L25.6464 28.1173C25.8621 31.2428 25.1956 34.2487 23.4758 36.9042C21.8906 39.3653 17.7653 43.6616 14.4197 42.0401C13.031 41.3757 11.8197 43.4266 13.2084 44.1102L13.1891 44.1295Z" fill="#988361"/>
<path d="M26.5457 26.6924C21.4035 24.4855 15.9664 23.2165 10.3328 23.1972C7.45718 23.1972 1.18049 22.6311 0.866445 26.6539C0.496851 31.3198 5.24816 31.2621 8.78815 31.418C12.3281 31.574 15.5348 31.4971 18.8804 31.1446C21.2262 30.8903 24.4329 30.8327 26.4667 29.5829C26.9367 29.2902 27.1525 28.7625 27.0158 28.2348L26.9773 28.0404C26.8983 27.6687 26.5265 27.2585 26.1356 27.2008H25.9582C24.4542 26.9658 23.809 29.271 25.3131 29.4846L24.6871 28.88L25.2361 27.532C23.651 28.5083 20.6194 28.5681 18.859 28.7625C17.0025 28.9761 15.1247 29.0744 13.266 29.1129C11.6829 29.1342 1.27877 29.5444 3.27201 26.4381C3.89797 25.4426 7.67296 25.6776 8.74969 25.6391C10.2943 25.5793 11.8581 25.6391 13.4027 25.7545C17.511 26.107 21.5188 27.1602 25.2938 28.7817C26.7017 29.3863 27.9152 27.3183 26.5073 26.7116L26.5457 26.6924Z" fill="#988361"/>
<path d="M103.307 28.2231H1048.81" stroke="#988361"/>
<path d="M1110.57 10.9144C1113.04 12.4974 1111.67 15.7191 1109.25 16.3814C1107 16.9881 1104.73 15.6785 1103.55 13.7857C1101.17 9.93804 1103.75 5.25296 1107.47 3.43704C1110.91 1.75784 1116.09 1.97148 1118.77 4.9795C1121.45 7.98539 1121.14 12.8862 1119.96 16.4412C1117.5 23.9976 1110.57 27.4542 1103.3 29.2103C1095.54 31.0861 1087.48 30.4409 1079.99 27.8452L1080.28 30.0307C1083.1 28.2148 1086.48 26.6339 1089.77 25.9118C1093.76 25.0316 1098.23 25.8327 1102.13 26.809C1109.58 28.704 1117.09 31.7889 1119.85 39.559C1121 42.8212 1121.39 47.0192 1119.67 50.1832C1117.5 54.1462 1112.12 54.7508 1108.25 53.2874C1104.37 51.8218 1101.11 47.1367 1103.38 42.9964C1104.3 41.3172 1106.06 39.9499 1108.03 39.9115C1110.87 39.873 1113.78 43.5049 1110.61 45.5152C1109.32 46.3356 1110.52 48.4057 1111.83 47.5854C1114.17 46.0813 1115.09 43.0562 1113.68 40.5567C1112.06 37.6661 1108.17 36.9034 1105.29 38.134C1097.53 41.4347 1099.82 51.841 1106.31 55.0648C1113.74 58.7544 1122.52 54.7914 1123.19 46.2971C1123.85 37.8029 1118.2 30.2465 1110.42 27.0248C1105.04 24.7987 1099.15 23.2157 1093.31 23.2157C1088.32 23.2157 1083.27 25.2858 1079.13 27.9798C1078.23 28.5673 1078.44 29.8171 1079.42 30.1674C1094.44 35.3823 1122 32.9981 1123.23 12.4184C1123.46 8.57076 1122.41 4.392 1119.12 2.05052C1115.84 -0.293085 1111.59 -0.468269 1107.97 0.721695C1101.23 2.96703 1097.12 12.2432 1103.59 17.2616C1106.37 19.4086 1110.67 19.5453 1113.1 16.7531C1115.27 14.2535 1114.56 10.564 1111.87 8.84422C1110.57 8.00462 1109.36 10.0748 1110.65 10.9144H1110.57Z" fill="#988361"/>
<path d="M1138.86 11.5978C1135.06 9.76269 1130.84 12.4973 1128.27 15.3087C1125.22 18.6671 1123.72 23.0788 1124.03 27.5908C1124.09 28.2937 1124.77 29.035 1125.53 28.7423C1130.13 26.9841 1135.73 24.916 1138.87 20.9317C1140.99 18.2569 1141.88 13.9222 1138.83 11.5978C1137.62 10.66 1136.43 12.7301 1137.62 13.668C1139.69 15.2489 1137.74 18.6671 1136.55 19.9938C1135.53 21.1261 1134.22 21.9465 1132.93 22.7092C1130.37 24.1918 1127.65 25.4031 1124.89 26.4585L1126.4 27.61C1126.18 24.4845 1126.85 21.4786 1128.57 18.8231C1130.15 16.362 1134.28 12.0657 1137.62 13.6872C1139.01 14.3516 1140.22 12.3007 1138.83 11.6171L1138.86 11.5978Z" fill="#988361"/>
<path d="M1137.64 42.0395C1134.32 43.6417 1130.17 39.3455 1128.59 36.9036C1126.89 34.2481 1126.2 31.2422 1126.42 28.1167L1124.91 29.2703C1127.67 30.3235 1130.39 31.5156 1132.95 33.0197C1134.26 33.7802 1135.55 34.6006 1136.57 35.7329C1137.76 37.0617 1139.71 40.4778 1137.64 42.0587C1136.43 42.9773 1137.64 45.0475 1138.86 44.1288C1141.91 41.8066 1141 37.4697 1138.89 34.795C1135.74 30.8128 1130.15 28.7426 1125.56 26.9844C1124.77 26.6917 1124.09 27.4352 1124.05 28.138C1123.74 32.6479 1125.24 37.0617 1128.29 40.4201C1130.84 43.2316 1135.06 45.964 1138.87 44.1288C1140.26 43.4644 1139.05 41.3964 1137.66 42.0587L1137.64 42.0395Z" fill="#988361"/>
<path d="M1126.69 28.7232C1130.31 27.1615 1134.14 26.1254 1138.07 25.7344C1139.79 25.5592 1141.52 25.5208 1143.25 25.5785C1144.21 25.619 1148.16 25.461 1148.73 26.3796C1150.65 29.4069 1140.83 29.0736 1139.3 29.0543C1137.43 29.0543 1135.57 28.9561 1133.69 28.7617C1131.81 28.5673 1128.37 28.469 1126.77 27.4734L1127.31 28.8215L1126.69 29.4261C1128.22 29.2103 1127.57 26.9073 1126.04 27.1209H1125.87C1125.48 27.2 1125.12 27.6102 1125.03 27.9798L1124.99 28.1763C1124.85 28.704 1125.07 29.2509 1125.53 29.5244C1127.41 30.6759 1130.39 30.7528 1132.56 31.007C1135.9 31.4172 1139.28 31.4962 1142.65 31.3787C1146.25 31.242 1151.51 31.477 1151.14 26.5954C1150.82 22.6901 1145.03 23.1772 1142.2 23.1387C1136.41 23.0789 1130.78 24.3693 1125.48 26.6338C1124.07 27.2384 1125.28 29.2894 1126.69 28.704V28.7232Z" fill="#988361"/>
</svg>
