<svg width="24" height="25" viewBox="0 0 24 25" fill="none" xmlns="http://www.w3.org/2000/svg">
<path fill-rule="evenodd" clip-rule="evenodd" d="M7 3.44629C4.79086 3.44629 3 5.23715 3 7.44629V17.4463C3 19.6554 4.79086 21.4463 7 21.4463H17C19.2091 21.4463 21 19.6554 21 17.4463V7.44629C21 5.23715 19.2091 3.44629 17 3.44629H7ZM1 7.44629C1 4.13258 3.68629 1.44629 7 1.44629H17C20.3137 1.44629 23 4.13258 23 7.44629V17.4463C23 20.76 20.3137 23.4463 17 23.4463H7C3.68629 23.4463 1 20.76 1 17.4463V7.44629ZM16.5 6.94629C16.5 6.394 16.9477 5.94629 17.5 5.94629H17.51C18.0623 5.94629 18.51 6.394 18.51 6.94629C18.51 7.49857 18.0623 7.94629 17.51 7.94629H17.5C16.9477 7.94629 16.5 7.49857 16.5 6.94629ZM12.4833 9.43549C11.8591 9.34293 11.2216 9.44954 10.6615 9.74017C10.1014 10.0308 9.64723 10.4906 9.36354 11.0543C9.07984 11.6179 8.98109 12.2567 9.08134 12.8796C9.18159 13.5026 9.47573 14.0782 9.92192 14.5244C10.3681 14.9706 10.9436 15.2647 11.5666 15.3649C12.1896 15.4652 12.8284 15.3664 13.392 15.0827C13.9556 14.799 14.4155 14.3448 14.7061 13.7847C14.9967 13.2247 15.1033 12.5872 15.0108 11.963C14.9164 11.3263 14.6197 10.7368 14.1646 10.2817C13.7094 9.82659 13.12 9.5299 12.4833 9.43549ZM9.74039 7.96492C10.6739 7.48055 11.7363 7.30286 12.7767 7.45712C13.8378 7.61448 14.8202 8.10895 15.5788 8.8675C16.3373 9.62606 16.8318 10.6085 16.9892 11.6696C17.1434 12.7099 16.9657 13.7724 16.4814 14.7059C15.997 15.6394 15.2306 16.3964 14.2912 16.8692C13.3518 17.342 12.2872 17.5066 11.2489 17.3395C10.2106 17.1725 9.25136 16.6822 8.50771 15.9386C7.76405 15.1949 7.27382 14.2357 7.10674 13.1974C6.93966 12.1591 7.10424 11.0945 7.57707 10.1551C8.04989 9.21569 8.80689 8.4493 9.74039 7.96492Z" fill="#F4E7D1"/>
</svg>
