<svg width="112" height="24" viewBox="0 0 112 24" fill="none" xmlns="http://www.w3.org/2000/svg">
<g clip-path="url(#clip0_173_1341)">
<path d="M74.8347 0.433735C76.0469 0.433735 77.2591 0.433735 78.508 0.433735C78.5318 3.29639 78.5556 6.15904 78.5801 9.10843C78.794 8.86988 79.0079 8.63133 79.2283 8.38554C80.035 7.59355 81.0886 7.057 82.1813 6.79518C82.2409 6.7799 82.3006 6.76462 82.362 6.74887C84.3424 6.3127 86.4936 6.64317 88.2473 7.65136C90.3486 9.00555 91.6576 10.927 92.2329 13.3552C92.6792 15.6207 92.3252 18.1275 91.1125 20.0964C89.7944 22.036 87.9915 23.4556 85.6715 23.9048C83.6251 24.224 81.5245 23.9216 79.8177 22.698C79.3622 22.3426 78.9018 21.9543 78.5801 21.4699C78.5563 22.1617 78.5325 22.8535 78.508 23.5663C77.2958 23.5663 76.0836 23.5663 74.8347 23.5663C74.8347 15.9325 74.8347 8.2988 74.8347 0.433735ZM79.8045 11.7108C79.7554 11.7585 79.7063 11.8061 79.6557 11.8551C78.7091 12.8434 78.4625 14.2103 78.4741 15.5272C78.516 17.0058 79.1073 18.2876 80.1736 19.3102C81.323 20.2877 82.7075 20.6265 84.1981 20.5301C85.2089 20.4028 86.0626 20.0781 86.863 19.4458C86.9178 19.4036 86.9726 19.3614 87.029 19.3179C87.7443 18.7279 88.2285 17.9367 88.5196 17.0602C88.5425 16.9927 88.5655 16.9251 88.5891 16.8555C88.9793 15.4786 88.8122 13.8876 88.1375 12.632C87.9326 12.2992 87.6983 12.0025 87.4392 11.7108C87.3714 11.6338 87.3714 11.6338 87.3022 11.5553C86.3895 10.5793 85.1232 10.1114 83.8137 10.0389C82.2143 9.99991 80.9151 10.5994 79.8045 11.7108Z" fill="#F4E7D1"/>
<path d="M103.095 6.56928C105.502 6.50252 107.625 7.393 109.388 8.99887C111.058 10.6011 111.911 12.7229 112.009 15.0313C112.058 17.5013 111.2 19.679 109.511 21.4615C107.91 23.1112 105.792 23.9741 103.5 24.012C101.086 24.0315 98.9894 23.3038 97.2347 21.6145C97.1756 21.5597 97.1164 21.5049 97.0555 21.4484C95.7511 20.2024 94.8584 18.4251 94.6418 16.6265C94.6339 16.5649 94.626 16.5033 94.6179 16.4399C94.3527 14.0158 94.9601 11.6941 96.4694 9.78163C98.0359 7.93029 100.042 6.81022 102.479 6.60091C102.684 6.58895 102.89 6.58018 103.095 6.56928ZM99.3955 11.8554C98.4764 12.9789 98.0707 14.3795 98.1998 15.8251C98.3648 17.3059 99.0359 18.4858 100.161 19.4593C101.292 20.3273 102.695 20.6129 104.093 20.4378C105.506 20.2139 106.578 19.4793 107.458 18.366C108.104 17.4577 108.369 16.4087 108.358 15.3027C108.358 15.2237 108.357 15.1448 108.356 15.0634C108.328 13.7146 107.841 12.5027 106.885 11.5462C105.886 10.6033 104.648 10.1361 103.285 10.0934C101.741 10.1418 100.472 10.7463 99.3955 11.8554Z" fill="#F4E7D1"/>
<path d="M50.418 7.73494C50.5252 7.79505 50.5252 7.79505 50.6346 7.85636C51.179 8.18169 51.6208 8.59773 52.0746 9.03615C52.1212 9.07752 52.1678 9.11889 52.2158 9.16152C52.5175 9.43726 52.739 9.76002 52.9659 10.0979C52.9977 10.1452 53.0295 10.1925 53.0623 10.2413C53.2079 10.4642 53.3169 10.655 53.3711 10.9157C52.8954 11.246 52.4044 11.5374 51.899 11.8193C51.758 11.8982 51.6171 11.9773 51.4762 12.0565C51.4081 12.0947 51.3401 12.1329 51.27 12.1723C51.0058 12.3238 50.7467 12.4832 50.4883 12.6445C50.346 12.7229 50.346 12.7229 50.2019 12.7229C50.1742 12.665 50.1742 12.665 50.1459 12.606C49.6093 11.5578 48.7519 10.8794 47.6692 10.4675C46.3328 10.0437 44.8952 10.1661 43.6296 10.7485C42.4088 11.4056 41.652 12.4597 41.1891 13.7445C40.8086 15.1054 40.9545 16.6021 41.5996 17.8582C42.3043 19.0233 43.3326 19.8635 44.6469 20.2319C46.0752 20.5388 47.5607 20.3774 48.807 19.5695C49.4459 19.106 49.8677 18.6008 50.2739 17.9277C50.5493 17.9701 50.7504 18.0503 50.9911 18.1898C51.0589 18.2286 51.1267 18.2675 51.1965 18.3076C51.2679 18.3492 51.3393 18.3908 51.4129 18.4337C51.5612 18.5191 51.7096 18.6045 51.8579 18.6899C51.931 18.7321 52.004 18.7743 52.0793 18.8179C52.3752 18.9885 52.6727 19.1563 52.9704 19.3238C53.0634 19.3762 53.1563 19.4286 53.2492 19.4811C53.3132 19.5171 53.3772 19.5532 53.4431 19.5904C53.0316 21.0294 51.6004 22.1875 50.3505 22.9021C48.2355 24.0651 45.7241 24.3382 43.398 23.6764C41.119 22.9774 39.3693 21.4838 38.2238 19.3914C37.1652 17.3547 37.0265 14.8177 37.6562 12.6274C38.0731 11.3268 38.6959 10.2608 39.6141 9.25301C39.6658 9.19524 39.7174 9.13746 39.7706 9.07794C42.4495 6.22746 47.1071 5.8358 50.418 7.73494Z" fill="#F4E7D1"/>
<path d="M34.0052 8.32681C34.5192 8.80308 34.9543 9.3603 35.2926 9.9759C35.2926 10.0236 35.2926 10.0713 35.2926 10.1205C35.2441 10.1477 35.1956 10.175 35.1456 10.2031C35.0006 10.2845 34.8556 10.366 34.7107 10.4474C34.546 10.5399 34.3814 10.6324 34.2167 10.7248C33.8508 10.9303 33.485 11.136 33.1209 11.3446C33.0679 11.3749 33.0148 11.4052 32.9602 11.4364C32.8636 11.4917 32.7671 11.5473 32.6707 11.6031C32.3556 11.7831 32.3556 11.7831 32.1955 11.7831C32.1046 11.6428 32.1046 11.6428 32.0019 11.4533C31.5565 10.6931 30.9409 10.2535 30.0842 10.0211C29.1688 9.85934 28.1976 9.92089 27.4168 10.4593C27.081 10.7271 26.9425 11.0009 26.8656 11.4217C26.8533 11.8089 26.9115 12.1461 27.1633 12.4487C27.6826 12.9494 28.4029 13.1968 29.0759 13.4096C29.1595 13.437 29.2432 13.4643 29.3293 13.4925C29.901 13.6768 30.4771 13.8399 31.0566 13.997C32.5906 14.4158 34.2015 15.0801 35.1035 16.4684C35.7855 17.6977 35.7846 19.1291 35.4367 20.4578C35.0793 21.6898 34.1396 22.5267 33.0598 23.1325C31.0799 24.1903 28.6165 24.2605 26.4855 23.6552C24.8443 23.1517 23.4913 22.0861 22.6653 20.5733C22.472 20.1995 22.472 20.1995 22.472 20.0241C22.8758 19.7925 23.2795 19.561 23.6832 19.3294C23.749 19.2917 23.749 19.2917 23.8161 19.2533C23.9049 19.2023 23.9938 19.1514 24.0827 19.1005C24.3143 18.968 24.5453 18.8347 24.7757 18.7C24.8218 18.6732 24.868 18.6463 24.9156 18.6186C25.004 18.5672 25.0923 18.5155 25.1804 18.4635C25.4809 18.2892 25.4809 18.2892 25.6412 18.2892C25.6895 18.3912 25.6895 18.3912 25.7388 18.4953C25.7827 18.5862 25.8267 18.6772 25.8707 18.7681C25.8918 18.8127 25.9128 18.8573 25.9345 18.9033C26.2798 19.6115 26.8044 20.0498 27.5397 20.3347C28.6148 20.6778 29.9691 20.8006 31.0231 20.2907C31.1534 20.2071 31.279 20.1164 31.4032 20.0241C31.4508 20.0241 31.4983 20.0241 31.5473 20.0241C31.8175 19.5076 31.9856 19.0086 31.8354 18.4337C31.5333 17.7696 30.7901 17.4813 30.1526 17.2249C29.5093 16.9981 28.8467 16.8287 28.1898 16.6466C26.5104 16.1769 24.6227 15.5231 23.6379 13.9834C23.0229 12.8493 22.9754 11.5513 23.2573 10.3105C23.6638 8.96162 24.5531 8.01014 25.7733 7.3541C28.3649 6.02261 31.8162 6.36419 34.0052 8.32681Z" fill="#F4E7D1"/>
<path d="M64.6791 6.72289C64.6791 8.03494 64.6791 9.34699 64.6791 10.6988C64.4176 10.6988 64.1562 10.6988 63.8868 10.6988C62.61 10.8076 61.4613 11.2759 60.5736 12.2169C59.8435 13.101 59.6884 14.1985 59.6864 15.3104C59.6853 15.4448 59.6853 15.4448 59.6842 15.582C59.6823 15.8256 59.6811 16.0691 59.6802 16.3127C59.679 16.5681 59.6771 16.8234 59.6753 17.0788C59.6719 17.5614 59.6693 18.044 59.6669 18.5265C59.6641 19.0764 59.6606 19.6262 59.6569 20.176C59.6495 21.3061 59.6432 22.4362 59.6373 23.5663C58.4489 23.5663 57.2604 23.5663 56.036 23.5663C56.036 18.1034 56.036 12.6405 56.036 7.01205C57.2244 7.01205 58.4129 7.01205 59.6373 7.01205C59.6611 7.79928 59.6848 8.5865 59.7093 9.39759C59.9589 9.00397 59.9589 9.00397 60.2135 8.60241C61.0261 7.50235 62.2663 6.99406 63.5728 6.76129C63.9442 6.71437 64.3023 6.72289 64.6791 6.72289Z" fill="#F4E7D1"/>
<path d="M1.50504 13.3474C1.58424 13.3472 1.66343 13.347 1.74502 13.3469C2.01045 13.3465 2.27584 13.3477 2.54127 13.3489C2.7315 13.3489 2.92174 13.3489 3.11198 13.3488C3.52158 13.3487 3.93117 13.3493 4.34077 13.3506C4.93298 13.3523 5.52518 13.3529 6.11739 13.3532C7.07824 13.3536 8.03909 13.3551 8.99995 13.3571C9.93323 13.3591 10.8665 13.3607 11.7998 13.3616C11.8574 13.3616 11.9149 13.3617 11.9742 13.3618C12.2629 13.362 12.5516 13.3623 12.8402 13.3626C15.2346 13.3648 17.6288 13.3688 20.0232 13.3735C20.0232 14.6617 20.0232 15.9499 20.0232 17.2771C17.6014 17.2819 15.1797 17.2859 12.7579 17.2882C12.472 17.2885 12.186 17.2887 11.9 17.289C11.8431 17.2891 11.7862 17.2891 11.7275 17.2892C10.8059 17.2901 9.88437 17.2918 8.9628 17.2938C8.01704 17.2959 7.07129 17.2971 6.12554 17.2975C5.54204 17.2978 4.95856 17.2987 4.37506 17.3005C3.9275 17.3018 3.47994 17.3019 3.03238 17.3016C2.84888 17.3017 2.66537 17.3021 2.48188 17.303C2.23132 17.304 1.9808 17.3038 1.73024 17.3032C1.62136 17.3041 1.62136 17.3041 1.51028 17.3051C1.07698 17.3023 0.753639 17.247 0.360132 17.0602C0.0295072 16.7114 -0.0124963 16.4684 -0.0171587 16.0019C-0.0177401 15.947 -0.0183215 15.892 -0.0189205 15.8354C-0.0199173 15.719 -0.0206896 15.6026 -0.0212559 15.4862C-0.0224927 15.3089 -0.0256531 15.1318 -0.0288348 14.9545C-0.0295645 14.8413 -0.0301777 14.7281 -0.0306636 14.6148C-0.0325551 14.5359 -0.0325551 14.5359 -0.0344849 14.4553C-0.0329211 14.0831 0.0438543 13.8698 0.288107 13.5904C0.682224 13.3265 1.04837 13.3435 1.50504 13.3474Z" fill="#F4E7D1"/>
<path d="M1.11921 20.0875C1.18663 20.0873 1.25405 20.0872 1.32351 20.0871C1.43481 20.0874 1.43481 20.0874 1.54835 20.0877C1.62706 20.0876 1.70578 20.0876 1.78688 20.0875C2.05197 20.0874 2.31706 20.0878 2.58215 20.0882C2.77165 20.0882 2.96114 20.0882 3.15064 20.0881C3.5593 20.0881 3.96795 20.0883 4.37661 20.0887C4.96746 20.0893 5.55832 20.0895 6.14917 20.0896C7.10775 20.0898 8.06632 20.0902 9.0249 20.0909C9.95617 20.0916 10.8874 20.0921 11.8187 20.0924C11.8761 20.0924 11.9335 20.0924 11.9926 20.0925C12.2805 20.0926 12.5684 20.0927 12.8563 20.0927C15.2452 20.0935 17.6342 20.0948 20.0232 20.0964C20.0232 21.3846 20.0232 22.6728 20.0232 24C17.5806 24.0048 15.1381 24.0088 12.6955 24.0111C12.4072 24.0113 12.1189 24.0116 11.8306 24.0119C11.7732 24.012 11.7158 24.012 11.6566 24.0121C10.7271 24.013 9.79746 24.0147 8.86787 24.0167C7.91414 24.0188 6.96042 24.02 6.00668 24.0204C5.4181 24.0207 4.82953 24.0216 4.24095 24.0234C3.78975 24.0247 3.33856 24.0248 2.88736 24.0245C2.70217 24.0246 2.51698 24.025 2.3318 24.0258C2.0793 24.0269 1.82683 24.0267 1.57433 24.0261C1.50077 24.0267 1.4272 24.0273 1.3514 24.028C0.966772 24.0255 0.69078 24.0035 0.360132 23.7831C0.0417946 23.4291 -0.0123671 23.2058 -0.0171587 22.7406C-0.01774 22.6873 -0.0183214 22.6339 -0.0189204 22.579C-0.0199172 22.466 -0.0206895 22.353 -0.0212558 22.2399C-0.0224924 22.0679 -0.0256528 21.896 -0.0288347 21.724C-0.0295644 21.6141 -0.0301777 21.5041 -0.0306635 21.3942C-0.0319245 21.3431 -0.0331856 21.2921 -0.0344849 21.2394C-0.0328972 20.8724 0.060953 20.6693 0.288107 20.3855C0.551562 20.1532 0.772481 20.0873 1.11921 20.0875Z" fill="#F4E7D1"/>
<path d="M1.26987 6.56942C1.33693 6.56927 1.40399 6.56913 1.47309 6.56898C1.54651 6.56919 1.61994 6.5694 1.69559 6.56962C1.77378 6.56956 1.85197 6.5695 1.93253 6.56943C2.1954 6.56931 2.45828 6.56971 2.72115 6.57011C2.90924 6.57013 3.09733 6.57011 3.28542 6.57007C3.69081 6.57004 4.0962 6.57026 4.5016 6.57067C5.08773 6.57126 5.67386 6.57144 6.26 6.57154C7.21094 6.57169 8.16189 6.57218 9.11284 6.57286C10.0366 6.57352 10.9604 6.57403 11.8842 6.57434C11.9696 6.57437 11.9696 6.57437 12.0567 6.5744C12.3424 6.57449 12.628 6.57458 12.9136 6.57467C15.2835 6.57542 17.6533 6.57676 20.0232 6.57831C20.0232 7.86651 20.0232 9.1547 20.0232 10.4819C17.5702 10.4867 15.1173 10.4907 12.6643 10.493C12.3748 10.4933 12.0853 10.4936 11.7958 10.4938C11.7382 10.4939 11.6806 10.494 11.6212 10.494C10.6876 10.495 9.75401 10.4967 8.82041 10.4987C7.86269 10.5007 6.90498 10.5019 5.94726 10.5023C5.35613 10.5026 4.76502 10.5036 4.17389 10.5053C3.76872 10.5065 3.36356 10.5068 2.95839 10.5065C2.7245 10.5064 2.49064 10.5067 2.25676 10.5078C2.00329 10.5089 1.74985 10.5086 1.49638 10.508C1.42232 10.5086 1.34826 10.5093 1.27196 10.5099C0.769357 10.5067 0.527651 10.4279 0.160389 10.0709C-0.0283342 9.78899 -0.0513579 9.57925 -0.0452954 9.25075C-0.0454691 9.19624 -0.0456429 9.14172 -0.0458219 9.08555C-0.0457516 8.97085 -0.044793 8.85614 -0.0429919 8.74145C-0.0405189 8.56672 -0.0415054 8.39226 -0.0429039 8.21753C-0.042407 8.10561 -0.0417103 7.99369 -0.0407938 7.88178C-0.041151 7.83003 -0.0415083 7.77829 -0.0418764 7.72498C-0.0333952 7.35898 0.0596107 7.14983 0.288105 6.86747C0.60643 6.63584 0.882071 6.56923 1.26987 6.56942Z" fill="#F4E7D1"/>
<path d="M67.2 7.01205C68.3884 7.01205 69.5769 7.01205 70.8013 7.01205C70.8013 12.4749 70.8013 17.9378 70.8013 23.5663C69.6129 23.5663 68.4244 23.5663 67.2 23.5663C67.2 18.1034 67.2 12.6405 67.2 7.01205Z" fill="#F4E7D1"/>
<path d="M70.7442 0.722891C71.2543 1.29398 71.3403 1.87463 71.3252 2.61935C71.2793 3.25339 70.9607 3.68835 70.5132 4.12048C69.9762 4.58209 69.4677 4.66052 68.7674 4.64881C68.1292 4.59627 67.6149 4.32073 67.2 3.83133C66.7226 3.16991 66.6792 2.51969 66.7679 1.73494C66.9006 1.15172 67.319 0.640327 67.8119 0.315135C68.8179 -0.219649 69.9168 -0.0461638 70.7442 0.722891Z" fill="#F4E7D1"/>
</g>
<defs>
<clipPath id="clip0_173_1341">
<rect width="112" height="24" fill="white"/>
</clipPath>
</defs>
</svg>
