<svg width="24" height="25" viewBox="0 0 24 25" fill="none" xmlns="http://www.w3.org/2000/svg">
<path fill-rule="evenodd" clip-rule="evenodd" d="M10.7574 3.20365C11.8826 2.07843 13.4087 1.44629 15 1.44629H18C18.5523 1.44629 19 1.894 19 2.44629V6.44629C19 6.99857 18.5523 7.44629 18 7.44629H15V9.44629H18C18.3079 9.44629 18.5987 9.58816 18.7882 9.83088C18.9777 10.0736 19.0448 10.3901 18.9701 10.6888L17.9701 14.6888C17.8589 15.134 17.4589 15.4463 17 15.4463H15V22.4463C15 22.9986 14.5523 23.4463 14 23.4463H10C9.44772 23.4463 9 22.9986 9 22.4463V15.4463H7C6.44772 15.4463 6 14.9986 6 14.4463V10.4463C6 9.894 6.44772 9.44629 7 9.44629H9V7.44629C9 5.85499 9.63214 4.32887 10.7574 3.20365ZM15 3.44629C13.9391 3.44629 12.9217 3.86772 12.1716 4.61786C11.4214 5.36801 11 6.38542 11 7.44629V10.4463C11 10.9986 10.5523 11.4463 10 11.4463H8V13.4463H10C10.5523 13.4463 11 13.894 11 14.4463V21.4463H13V14.4463C13 13.894 13.4477 13.4463 14 13.4463H16.2192L16.7192 11.4463H14C13.4477 11.4463 13 10.9986 13 10.4463V7.44629C13 6.91586 13.2107 6.40715 13.5858 6.03208C13.9609 5.657 14.4696 5.44629 15 5.44629H17V3.44629H15Z" fill="#F4E7D1"/>
</svg>
