<svg width="24" height="25" viewBox="0 0 24 25" fill="none" xmlns="http://www.w3.org/2000/svg">
<path fill-rule="evenodd" clip-rule="evenodd" d="M4 3.44629C3.44772 3.44629 3 3.894 3 4.44629C3 4.99857 3.44772 5.44629 4 5.44629C4.55228 5.44629 5 4.99857 5 4.44629C5 3.894 4.55228 3.44629 4 3.44629ZM1 4.44629C1 2.78943 2.34315 1.44629 4 1.44629C5.65685 1.44629 7 2.78943 7 4.44629C7 6.10314 5.65685 7.44629 4 7.44629C2.34315 7.44629 1 6.10314 1 4.44629ZM16 9.44629C14.6739 9.44629 13.4021 9.97307 12.4644 10.9108C11.5268 11.8484 11 13.1202 11 14.4463V20.4463H13V14.4463C13 13.6506 13.316 12.8876 13.8786 12.325C14.4413 11.7624 15.2043 11.4463 16 11.4463C16.7956 11.4463 17.5587 11.7624 18.1213 12.325C18.6839 12.8876 19 13.6506 19 14.4463V20.4463H21V14.4463C21 13.1202 20.4732 11.8484 19.5355 10.9108C18.5978 9.97307 17.326 9.44629 16 9.44629ZM11.0502 9.49654C12.363 8.18379 14.1435 7.44629 16 7.44629C17.8565 7.44629 19.637 8.18379 20.9497 9.49654C22.2625 10.8093 23 12.5898 23 14.4463V21.4463C23 21.9986 22.5523 22.4463 22 22.4463H18C17.4477 22.4463 17 21.9986 17 21.4463V14.4463C17 14.1811 16.8946 13.9267 16.7071 13.7392C16.5195 13.5516 16.2652 13.4463 16 13.4463C15.7348 13.4463 15.4804 13.5516 15.2929 13.7392C15.1053 13.9267 15 14.1811 15 14.4463V21.4463C15 21.9986 14.5523 22.4463 14 22.4463H9.99997C9.44768 22.4463 8.99997 21.9986 8.99997 21.4463V14.4463C8.99997 12.5898 9.73746 10.8093 11.0502 9.49654ZM1 9.44627C1 8.89399 1.44772 8.44627 2 8.44627H6C6.55229 8.44627 7 8.89399 7 9.44627V21.4463C7 21.9986 6.55229 22.4463 6 22.4463H2C1.44772 22.4463 1 21.9986 1 21.4463V9.44627ZM3 10.4463V20.4463H5V10.4463H3Z" fill="#F4E7D1"/>
</svg>
