<svg width="24" height="25" viewBox="0 0 24 25" fill="none" xmlns="http://www.w3.org/2000/svg">
<g clip-path="url(#clip0_173_1332)">
<path fill-rule="evenodd" clip-rule="evenodd" d="M14.5255 2.79677C15.5743 2.39646 16.7207 2.32792 17.8097 2.60041C18.6758 2.8171 19.4722 3.24114 20.1326 3.83169C20.9448 3.53317 21.7151 3.12916 22.4236 2.62942C22.7642 2.38915 23.2181 2.38537 23.5627 2.61993C23.9073 2.8545 24.0702 3.2782 23.9716 3.6832C23.629 5.08972 22.9424 6.38615 21.9769 7.45755C21.9917 7.61895 21.9994 7.78102 22 7.94327L22 7.94658C22 14.0465 19.0631 18.5216 14.8448 20.7668C10.6509 22.9991 5.29085 22.9744 0.514338 20.3207C0.109527 20.0958 -0.0879188 19.6224 0.0371299 19.1765C0.162178 18.7307 0.577004 18.429 1.03973 18.4474C2.72654 18.5145 4.39635 18.1791 5.91472 17.4796C4.41157 16.552 3.3294 15.4508 2.57704 14.2629C1.57341 12.6782 1.19454 10.9995 1.12601 9.49199C1.05769 7.98886 1.29646 6.63548 1.54746 5.66495C1.67356 5.17736 1.8044 4.78008 1.90526 4.50111C1.95575 4.36146 1.99889 4.25099 2.03042 4.17316C2.04619 4.13423 2.05908 4.10342 2.06854 4.08117L2.08011 4.05424L2.08385 4.04568L2.08519 4.04264L2.08573 4.04144C2.08596 4.04092 2.08617 4.04044 2.99998 4.44658L2.08617 4.04044C2.23248 3.71124 2.54456 3.48618 2.90312 3.45128C3.26168 3.41639 3.6113 3.57705 3.81834 3.87187C4.73388 5.17555 5.95762 6.23257 7.38058 6.94879C8.51244 7.51849 9.74238 7.8585 10.9997 7.95299C10.9923 6.84333 11.322 5.75724 11.9456 4.83864C12.5761 3.90983 13.4767 3.19708 14.5255 2.79677ZM3.40463 6.49019C3.22094 7.29155 3.07425 8.30782 3.12395 9.40117C3.18043 10.6437 3.48906 11.965 4.26668 13.1928C5.04027 14.4142 6.31602 15.6038 8.40612 16.5328C8.73792 16.6802 8.96372 16.996 8.99602 17.3576C9.02831 17.7193 8.86204 18.07 8.56161 18.274C7.45067 19.0281 6.23418 19.5954 4.96008 19.9623C8.13025 20.7699 11.307 20.3842 13.9051 19.0013C17.4365 17.1217 19.9995 13.3474 20 7.94825C19.9992 7.73215 19.9783 7.51659 19.9378 7.30433C19.8751 6.97647 19.9801 6.63896 20.2178 6.40457C20.4406 6.18489 20.6469 5.95074 20.8357 5.70408C20.6092 5.78764 20.3799 5.86436 20.1483 5.93411C19.7717 6.04752 19.3635 5.92961 19.1054 5.63282C18.6376 5.0949 18.0159 4.71364 17.3243 4.5406C16.6327 4.36756 15.9047 4.41109 15.2386 4.66529C14.5726 4.9195 14.0007 5.37213 13.6003 5.96195C13.1999 6.55178 12.9903 7.25035 12.9999 7.96317L13.0001 7.97658H13V8.97658C13 9.51877 12.5679 9.96219 12.0259 9.97624C10.1037 10.0261 8.19897 9.59977 6.4814 8.73526C5.33583 8.15865 4.29723 7.39906 3.40463 6.49019Z" fill="#F4E7D1"/>
</g>
<defs>
<clipPath id="clip0_173_1332">
<rect width="24" height="24" fill="white" transform="translate(0 0.446289)"/>
</clipPath>
</defs>
</svg>
